<svg width="36" height="40" viewBox="0 0 36 40" fill="none" xmlns="http://www.w3.org/2000/svg">
<path d="M17.978 40L3.27622 36.0015L0 0H36L32.7203 35.9958L17.978 40Z" fill="#264DE4"/>
<path d="M29.9125 33.7037L32.7152 2.9436H18V36.9393L29.9125 33.7037Z" fill="#2965F1"/>
<path d="M7.51062 16.2961L7.91455 20.7115H18V16.2961H7.51062Z" fill="#EBEBEB"/>
<path d="M6.69897 7.35925L7.10866 11.7747H18V7.35925H6.69897Z" fill="#EBEBEB"/>
<path d="M17.9999 27.7635L17.9802 27.7686L12.9609 26.4408L12.64 22.9193H8.11591L8.74731 29.8522L17.9792 32.363L17.9999 32.3574V27.7635Z" fill="#EBEBEB"/>
<path d="M28.4605 16.2962L29.2741 7.35925H17.9844V11.7747H24.335L23.9249 16.2962H17.9844V20.7116H23.5341L23.011 26.4381L17.9844 27.7672V32.361L27.2237 29.8522L27.2915 29.1063L28.3505 17.4819L28.4605 16.2962Z" fill="white"/>
</svg>
