<svg width="80" height="40" viewBox="0 0 80 40" fill="none" xmlns="http://www.w3.org/2000/svg">
<path d="M47.9447 13.6145C46.1906 13.6145 44.8842 14.6455 44.8842 17.1268C44.8842 18.9963 45.7451 20.2944 47.8501 20.2944C49.6343 20.2944 50.8461 19.0358 50.8461 17.0496C50.8461 14.7986 49.7617 13.6145 47.9447 13.6145ZM44.4376 31.1353C44.0226 31.7449 43.609 32.393 43.609 33.1574C43.609 34.6831 45.2341 35.1423 47.4666 35.1423C49.3159 35.1423 51.8349 34.987 51.8349 32.9289C51.8349 31.7054 50.623 31.63 49.0917 31.5151L44.4376 31.1353ZM53.8751 13.7299C54.448 14.6078 55.0547 15.8296 55.0547 17.5851C55.0547 21.8215 52.2807 24.3019 48.2645 24.3019C47.2431 24.3019 46.3185 24.1497 45.7451 23.9589L44.6926 25.9815L47.8168 26.21C53.3333 26.631 56.5842 26.8222 56.5842 31.8962C56.5842 36.2864 53.3648 38.766 47.8168 38.766C42.0461 38.766 39.8462 37.0105 39.8462 33.9955C39.8462 32.2777 40.484 31.3638 41.5999 30.1021C40.5474 29.5697 40.1972 28.6158 40.1972 27.5848C40.1972 26.7446 40.5474 25.9815 41.1222 25.2557C41.6959 24.5317 42.3333 23.8054 43.0986 22.9661C41.5365 22.0499 40.3565 20.0651 40.3565 17.2404C40.3565 12.8519 42.7799 9.83777 47.6571 9.83777C49.0283 9.83777 49.8577 9.98863 50.5911 10.2193H56.8088V13.4623L53.8751 13.7299Z" fill="#2E2C2C"/>
<path d="M62.418 6.79438C60.6002 6.79438 59.5484 5.534 59.5484 3.3575C59.5484 1.18407 60.6002 0 62.418 0C64.2673 0 65.3194 1.18407 65.3194 3.3575C65.3194 5.534 64.2673 6.79438 62.418 6.79438ZM58.3043 29.7307V26.7171L59.9308 26.4509C60.3774 26.3737 60.4408 26.2597 60.4408 25.686V14.465C60.4408 14.0462 60.3455 13.7778 60.0257 13.6642L58.3043 12.9384L58.6549 9.84798H65.2553V25.686C65.2553 26.2978 65.2861 26.3737 65.7656 26.4509L67.3918 26.7171V29.7307H58.3043Z" fill="#2E2C2C"/>
<path d="M80 28.2511C78.6284 29.0518 76.6201 29.7772 74.8019 29.7772C71.008 29.7772 69.5738 27.9472 69.5738 23.6323V13.633C69.5738 13.4046 69.5738 13.2515 69.3177 13.2515H67.0863V9.85453C69.8928 9.47212 71.008 7.79249 71.3586 3.63245H74.3879V9.05374C74.3879 9.31994 74.3879 9.43528 74.6433 9.43528H79.1383V13.2515H74.3879V22.3728C74.3879 24.6247 74.8349 25.5018 76.5556 25.5018C77.4495 25.5018 78.373 25.2352 79.1383 24.8918L80 28.2511Z" fill="#2E2C2C"/>
<path d="M32.7589 18.2354L18.1809 0.78572C17.342 -0.219426 15.9803 -0.219426 15.1403 0.78572L12.1131 4.40942L15.9532 9.00625C16.8456 8.64533 17.8688 8.88741 18.5802 9.73906C19.295 10.596 19.4957 11.8314 19.1869 12.9032L22.8877 17.3334C23.7831 16.9641 24.8162 17.2031 25.5313 18.0605C26.5307 19.2564 26.5307 21.1947 25.5313 22.3915C24.5315 23.5883 22.9123 23.5883 21.9122 22.3915C21.1604 21.4908 20.9747 20.169 21.3553 19.0603L17.904 14.9288L17.9036 25.8012C18.1472 25.9459 18.3773 26.1385 18.5802 26.3805C19.5796 27.5765 19.5796 29.5148 18.5802 30.7125C17.5805 31.9088 15.9605 31.9088 14.9622 30.7125C13.9628 29.5148 13.9628 27.5765 14.9622 26.3805C15.2091 26.0854 15.4949 25.8622 15.7997 25.7122V14.7385C15.4949 14.5894 15.2095 14.3675 14.9622 14.0701C14.205 13.165 14.0229 11.8349 14.4109 10.7218L10.6258 6.18991L0.630024 18.1547C-0.210008 19.1608 -0.210008 20.7908 0.630024 21.796L15.208 39.2461C16.0473 40.2513 17.4087 40.2513 18.2491 39.2461L32.7589 21.8771C33.5986 20.8715 33.5986 19.2406 32.7589 18.2354Z" fill="#DE4C36"/>
</svg>
