<svg width="40" height="40" viewBox="0 0 40 40" fill="none" xmlns="http://www.w3.org/2000/svg">
<path fill-rule="evenodd" clip-rule="evenodd" d="M19.9998 0C8.95568 0 0 9.18045 0 20.5063C0 29.5669 5.73056 37.2532 13.6771 39.9651C14.6763 40.1553 15.0433 39.5202 15.0433 38.9786C15.0433 38.4896 15.0247 36.8743 15.0161 35.1608C9.45213 36.4012 8.27807 32.7413 8.27807 32.7413C7.36829 30.371 6.05745 29.7408 6.05745 29.7408C4.24253 28.4681 6.19423 28.4945 6.19423 28.4945C8.20222 28.6389 9.26004 30.6077 9.26004 30.6077C11.0438 33.742 13.9387 32.836 15.08 32.3124C15.2595 30.987 15.7778 30.0821 16.3498 29.57C11.9076 29.0521 7.23747 27.2935 7.23747 19.436C7.23747 17.1972 8.01908 15.3679 9.29846 13.9315C9.09047 13.4153 8.4059 11.3296 9.49187 8.50503C9.49187 8.50503 11.171 7.9539 14.9929 10.607C16.5886 10.1523 18.2998 9.92378 19.9998 9.91597C21.6988 9.92378 23.4111 10.1516 25.0097 10.6063C28.827 7.95322 30.5042 8.50435 30.5042 8.50435C31.5928 11.3286 30.9082 13.4146 30.7005 13.9308C31.9829 15.3672 32.7589 17.1965 32.7589 19.4353C32.7589 27.3115 28.0802 29.0453 23.6267 29.5533C24.3444 30.1897 24.9836 31.438 24.9836 33.3508C24.9836 36.0946 24.9604 38.3029 24.9604 38.9783C24.9604 39.524 25.3207 40.1634 26.3342 39.962C34.2761 37.2475 40 29.5635 40 20.5063C39.9997 9.18113 31.045 0.000339552 19.9998 0.000339552V0Z" fill="#2E2C2C"/>
<path d="M7.57495 29.4422C7.5309 29.5441 7.37458 29.5747 7.23217 29.505C7.08645 29.4385 7.00531 29.2996 7.05234 29.1974C7.09539 29.0921 7.25204 29.0633 7.39677 29.1335C7.54249 29.2004 7.62529 29.3407 7.57462 29.4426L7.57495 29.4422ZM8.38504 30.3689C8.28999 30.4596 8.10353 30.4175 7.97701 30.2738C7.84586 30.1312 7.82136 29.94 7.91839 29.848C8.01709 29.7577 8.19792 29.8005 8.32907 29.9431C8.45956 30.0878 8.48539 30.2772 8.38537 30.3693L8.38504 30.3689ZM9.17393 31.5496C9.05139 31.6372 8.85069 31.5554 8.72683 31.3731C8.60429 31.1904 8.60429 30.9713 8.73014 30.8841C8.85367 30.7965 9.05139 30.8756 9.17724 31.0562C9.29912 31.2413 9.29912 31.4603 9.17393 31.5493V31.5496ZM10.2539 32.6909C10.1446 32.8149 9.91083 32.7816 9.73993 32.6128C9.5654 32.4475 9.51671 32.2121 9.62634 32.0885C9.73761 31.9643 9.97243 31.9989 10.1443 32.1666C10.3189 32.3317 10.3715 32.5673 10.2546 32.6906L10.2539 32.6909ZM11.7443 33.3535C11.6956 33.5141 11.4711 33.5871 11.2442 33.5185C11.018 33.4482 10.8699 33.2604 10.9163 33.0981C10.9627 32.9361 11.1889 32.8604 11.4171 32.9334C11.6433 33.0034 11.7913 33.1901 11.7443 33.3535ZM13.3814 33.476C13.387 33.6452 13.1949 33.7851 12.9574 33.7885C12.718 33.7942 12.5242 33.657 12.5219 33.4906C12.5219 33.3198 12.71 33.1816 12.9492 33.1769C13.1866 33.1725 13.3817 33.3083 13.3817 33.4757L13.3814 33.476ZM14.9042 33.2105C14.9326 33.3752 14.7674 33.5446 14.5312 33.5898C14.2994 33.634 14.0841 33.5314 14.0543 33.3681C14.0258 33.199 14.1941 33.0295 14.4259 32.9857C14.6624 32.9439 14.8744 33.0434 14.9042 33.2108V33.2105Z" fill="#2E2C2C"/>
</svg>
