<svg width="36" height="40" viewBox="0 0 36 40" fill="none" xmlns="http://www.w3.org/2000/svg">
<path d="M36 0L32.7203 35.9959L17.978 40L3.27628 36.0014L0 0H36Z" fill="#E44D26"/>
<path d="M18 38L30.1432 34.5737L33 2H18V38Z" fill="#F16529"/>
<path d="M11.7942 12.2382H18V8H7L7.10494 9.13701L8.1832 20.8163H18V16.5781H12.1951L11.7942 12.2382ZM12.7829 22.9355H8.37921L8.99374 29.5901L17.9798 32L18 31.9947V27.5852L17.9808 27.5901L13.0952 26.3156L12.7829 22.9355Z" fill="#EBEBEB"/>
<path d="M18.0001 20.8174H22.9158L22.4523 26.3145L18 27.5904V32L26.1838 29.5919L26.2438 28.8757L27.182 17.717L27.2794 16.5789H18.0001V20.8174ZM18.0001 12.2282V12.2385H27.6426L27.7226 11.2859L27.9046 9.13711L28 8H18.0001V12.2283V12.2282Z" fill="white"/>
</svg>
