<svg width="264" height="533" viewBox="0 0 264 533" fill="none" xmlns="http://www.w3.org/2000/svg">
<path d="M68.6464 120.94L71.727 119.914L72.0775 121.717L75.5839 120.991L77.8629 118.386L78.9149 120.965L80.5427 121.516L80.7682 120.264L82.7467 119.438L80.693 118.461L81.1939 117.084L83.5231 118.16L84.1492 117.008L85.6269 120.239L88.8577 122.443L89.3335 120.189L87.9561 119.237L88.1063 117.134L92.1636 118.361L96.3711 114.228L98.7504 115.731L100.879 116.583L101.38 119.738L100.579 119.964L101.08 121.366L103.484 121.542L102.783 123.22L104.26 122.794L109.069 124.847L111.799 121.216L112.425 121.692L112.575 123.921L109.144 128.053L109.52 133.238L111.498 136.493L109.395 138.372L106.414 136.568L104.586 138.647L101.38 136.719L99.4767 137.645L100.904 140.826L98.0742 147.964L93.3657 149.742L93.8416 152.722L96.1458 154.601L96.3461 160.637L100.228 162.59L95.2441 164.669L97.0974 170.63L99.8524 173.535L93.0903 176.139L94.5178 180.773L91.5626 184.129L91.4623 188.437L91.3371 190.49L89.9596 191.116L87.6054 190.014L87.2548 192.92L84.1492 193.571L83.6984 197.528L81.0186 196.175L78.2136 196.351L77.7126 193.746L81.2691 193.771L81.5697 186.508L79.7164 185.03V182.726L74.3567 185.005L74.1814 178.318L73.4551 176.841L71.0006 176.165L69.6733 178.218L69.3977 182.301L67.1939 182.075L64.1133 178.894L57.6016 172.558L60.1312 161.989L60.3065 160.136L59.2045 159.785L65.666 138.272L68.6464 120.94V120.94Z" fill="#F6F4F2" stroke="#2E2C2C"/>
<path d="M106.64 396.91L107.616 395.959L109.269 397.612L115.28 396.059L118.887 398.964L121.116 397.086L132.386 403.748L138.697 404.274L145.785 408.907L148.515 407.98L152.121 408.556L153.874 410.059L159.359 410.084L159.51 408.256L162.039 407.229L164.093 404.624L164.544 402.871L166.372 402.195L167.349 399.891L166.572 399.064L170.604 398.964L172.082 396.81L176.014 395.783L179.42 402.596L183.703 404.274L183.002 406.528L186.107 412.964L186.859 413.265L186.708 411.587L188.436 411.787L190.215 410.134L192.068 412.013L193.496 410.284L194.046 411.161L196.476 410.685L197.853 408.481L200.283 407.805L200.959 408.732L203.814 406.928L203.964 408.757L201.184 412.313L202.512 413.691L201.059 417.898L199.707 418.75L198.58 426.714L195.048 427.54L190.941 424.585L188.587 426.013L189.188 428.492L185.03 429.669L182.751 428.617L177.968 430.972L179.095 433.476L178.569 436.682L176.415 439.186L176.315 442.041L173.084 447.351L167.374 452.51L165.42 453.011L163.316 459.147L163.667 462.403L162.69 462.653L162.79 464.206L161.789 463.906L160.085 468.439L158.883 468.339L158.658 473.122L157.406 473.222L158.207 476.153L153.323 475.877L149.842 479.559L145.309 478.181L139.123 480.761L138.221 479.985L138.372 480.836L134.49 483.14L133.663 482.514L132.862 483.892L131.284 483.816L131.033 484.968L128.228 485.244L128.278 487.172L127.377 486.947L126.951 488.249L125.624 487.323L124.422 488.324L121.065 487.999L119.112 490.929L120.389 492.357L117.484 493.158L114.454 496.715L104.736 494.461L99.9776 490.178L97.8989 489.977L98.7003 487.924L97.6986 486.196L94.3425 484.843L93.6163 486.371L93.0152 485.419L86.5786 486.772L86.2781 489.276L83.9739 491.004L78.9149 490.804L74.557 487.573L70.9256 488.5L69.0723 491.104L67.1187 488.6L61.6338 489.151L60.3565 485.519L56.675 484.417L57.5014 475.502L54.8217 468.89L57.4764 457.494L55.3726 454.013L56.9254 446.975L58.2528 448.428L61.4836 447.451L65.591 453.562L67.3691 452.059L70.8253 453.963L71.6518 452.886L73.2046 453.211L73.48 448.979L74.8576 447.05L76.21 447.326L76.0347 444.195L77.1367 443.594L84.8004 442.918L85.2763 441.841L93.4911 444.22L93.1404 442.292L95.9705 439.036L95.1941 437.784L96.4213 429.619L94.4177 426.338L90.8612 426.764L87.2548 421.68L88.9078 417.447L90.9114 418.574L91.5124 415.093L92.8899 414.843L93.2656 413.415L95.0688 415.143L96.6217 415.043L97.1475 410.284L100.679 411.011L102.207 408.682L109.369 406.528L109.395 402.295L106.64 396.91Z" fill="#F6F4F2" stroke="#2E2C2C"/>
<path d="M115.606 36.5139L114.754 42.7251L112.675 47.7841L110.196 50.2636L116.708 49.0364L120.515 50.7144L119.863 59.3048L129.03 60.9327L131.434 58.0776L134.615 62.4855L133.838 64.2888L132.361 64.5893L132.536 66.3675L130.407 67.6197L130.608 68.9471L128.078 68.7718L127.352 71.3264L124.547 72.5285L124.296 77.4874L121.141 81.2442L122.218 81.5447L121.692 83.3229L120.54 86.2532L117.209 89.2335L114.479 86.6789L112.801 88.1315L110.171 86.6789L108.067 84.8757L108.593 83.0474L107.091 82.6968L106.539 80.6682L102.758 79.466L102.056 81.3945L100.178 81.3193L97.6736 83.924L96.9223 86.9043L94.618 85.8274L93.8667 83.1476L88.4821 84.7254L89.2585 82.7218L88.0563 82.3712L85.5267 84.6002L83.5983 83.2728L79.9919 84.0242L78.6393 86.4034L71.3513 86.9043L70.3495 82.5215L71.3764 81.6199L72.9292 80.6932L71.777 79.3909L68.2207 78.6395L66.6679 75.9597L64.2136 76.2853L60.6571 73.5053L58.3279 73.2298L55.5981 58.3782L59.7806 58.1527L64.539 55.3728L67.1187 55.1974L68.1455 56.3746L68.7716 53.9202L71.8523 56.049L73.981 55.1474L75.1331 57.176L76.8863 56.3746L76.3603 52.9935L78.3889 51.2904L78.6393 46.3816L79.9668 45.0542L81.1189 44.929L81.219 46.2564L83.1475 45.7054L86.0778 43.0757L89.9848 41.6982L91.9133 42.8002L95.3944 42.6499L96.3712 40.5712L98.1494 41.598L104.135 37.2402L106.414 37.7662L106.59 36.6391L112.225 37.7161L115.606 36.5139Z" fill="#F6F4F2" stroke="#2E2C2C"/>
<path d="M214.558 18.5318L217.038 19.0828L218.465 23.3655L220.369 24.0667L228.684 23.7662L231.313 20.8359L234.369 23.2653L232.666 29.7269L237.049 30.9791L234.845 40.8468L232.841 44.5284L233.868 45.1796L234.995 51.1904L238.326 53.6448L241.657 52.643L242.684 50.7145L253.929 53.1439L257.711 56.1994L259.188 58.9293L261.893 60.2316L262.87 62.3354L259.088 67.9454L257.435 68.7218L257.986 70.1744L256.809 70.3748L257.135 71.602L255.356 72.4035L253.678 75.484L254.104 77.6879L251.474 79.6164L252.702 82.2211L249.947 82.9975L248.845 81.3946L247.017 82.3212L246.716 83.874L248.018 84.976L244.988 86.1782L243.21 90.6612L239.328 92.1138L240.004 93.7417L238.576 94.7686L236.498 93.7668L232.641 97.5987L231.038 95.8956L230.387 97.1228L226.555 96.697L223.149 100.679L221.746 104.561L217.088 108.518L218.19 111.724L213.857 118.787L209.149 119.788L205.367 118.586L204.165 119.538L201.184 118.812L199.381 119.989L198.905 118.762L195.299 117.985L194.122 116.032L190.691 114.203L190.64 111.674L192.118 109.445L188.436 108.218L189.664 106.84L189.463 103.86L185.782 109.42L178.994 107.441L174.662 108.017L170.454 107.141L167.849 102.182L164.568 100.554L165.971 96.6219L168.1 97.0226L167.774 92.6898L170.103 90.7864L169.052 89.6845L170.579 87.9313L173.86 87.18L170.154 84.4L170.855 83.1728L169.728 79.1155L169.853 76.4607L175.138 73.9312L174.887 71.5018L176.29 68.5465L180.622 67.7952L178.293 63.5375L178.268 60.5822L182.225 47.8344L185.13 44.4032L185.206 41.7484L183.402 40.4461L182.1 37.0901L182.876 30.1526L185.03 25.9701L183.753 23.5909L184.079 20.335L187.56 18.3815L191.817 20.2098L193.045 22.7143L198.254 22.6392L200.383 20.1597L202.086 20.6856L203.138 23.2653L207.27 23.7662L212.855 23.115L213.657 18.1812L214.558 18.5318Z" fill="#F6F4F2" stroke="#2E2C2C"/>
<path d="M136.869 202.537L140.701 201.81L142.604 199.331L146.862 198.004L149.792 195.324L150.594 192.844L152.772 194.122L156.254 193.445L158.007 188.186L160.211 185.481L162.214 184.755L163.366 186.308L165.069 185.782L167.549 186.934L170.304 185.731L171.456 186.833L172.833 183.828L174.486 184.604L175.563 183.277L177.341 184.129L177.091 190.39L174.486 194.873L172.433 195.925L173.51 197.277L179.746 199.581L181.925 196.726L185.982 198.529L187.986 197.052L188.411 194.021L189.889 192.744L192.118 197.503L196.301 197.528L197.628 196.3L202.587 199.682L201.635 201.66L197.728 202.987L196.376 207.02L197.428 208.047L197.052 211.403L199.281 214.633H203.413L205.292 219.417L207.245 220.018L209.499 224.977L207.696 228.333L207.846 232.315L206.118 234.043L206.368 239.503L202.812 243.936L199.757 245.714L200.583 249.571L197.503 260.015L186.758 261.793L178.844 260.39L172.358 263.045L162.715 260.841L155.903 260.716L152.672 261.342L148.314 264.899L145.61 262.219L143.105 263.496L141.602 267.929L139.023 268.43L137.846 270.884L133.488 273.639L134.64 270.258L133.688 268.355L130.357 263.321L128.178 262.795L126.4 260.215L122.994 260.941L123.32 255.281L122.017 252.351L120.414 254.079L119.137 252.526L116.708 252.101L115.33 253.328L115.055 259.865L113.552 261.217L115.28 265.45L108.994 266.076L100.954 262.619L101.53 251.55L100.428 248.92L98.6503 249.947L97.0974 247.267V247.192L96.4713 245.864L98.1243 244.762L97.874 242.408L101.656 241.006L103.033 241.532L104.912 238.401L106.314 239.027L107.842 238L110.246 232.991L110.547 231.489L113.101 231.664L112.826 229.786L114.429 230.888L115.18 229.335L117.033 230.261L117.158 227.782L118.285 229.184L119.237 229.034L118.561 227.306L119.838 228.458L121.441 227.331L122.543 228.558L123.37 225.954L127.402 225.929L126.3 222.848L130.382 220.243L133.488 220.995L134.815 222.548L134.966 218.991L135.742 218.265L134.089 218.34L136.493 217.388L137.57 219.617L139.974 216.737L139.298 215.936L140.851 215.31L140.5 213.406L135.742 209.599L134.74 207.496L136.869 202.537Z" fill="#F6F4F2" stroke="#2E2C2C"/>
<path d="M57.6267 172.483L64.1384 178.819L67.2188 182L69.4228 182.225L69.6984 178.143L71.0257 176.089L73.4552 176.766L74.1814 178.243L74.3818 184.93L79.7164 182.651V184.955L81.5697 186.433L81.2941 193.696L77.7377 193.671L78.2387 196.276L81.0437 196.1L83.6985 197.453L84.1492 193.496L87.2548 192.819L87.6055 189.914L89.9597 191.016L91.3371 190.39L91.4623 188.336L92.5143 188.061L93.6163 189.639L95.9455 189.288L99.8023 192.895L104.386 190.816L105.012 191.818L106.139 190.64L109.044 191.868L116.282 186.458L121.717 184.429L128.804 177.392L133.212 174.762L133.312 176.49L135.717 179.02L134.615 180.873L131.66 181.975L131.885 183.503L133.338 184.63L135.692 184.429L135.066 190.19L138.772 192.018L138.196 193.596L135.116 194.497L133.413 198.83L136.869 202.537L134.74 207.496L135.742 209.6L140.5 213.406L140.851 215.31L139.298 215.936L139.975 216.737L137.57 219.617L136.493 217.388L134.089 218.34L135.742 218.265L134.966 218.991L134.815 222.548L133.488 220.995L130.382 220.244L126.3 222.848L127.402 225.929L123.37 225.954L122.543 228.559L121.441 227.331L119.838 228.458L118.561 227.306L119.237 229.034L118.286 229.185L117.158 227.782L117.033 230.262L115.18 229.335L114.429 230.888L112.826 229.786L113.101 231.664L110.547 231.489L110.246 232.991L109.169 232.39L110.947 229.135L107.316 223.95L108.268 218.716L105.488 216.988L103.058 220.845L100.479 219.292L97.8238 221.546L96.0707 225.253L98.2496 227.331L97.5484 230.387L94.8184 227.381L90.0849 234.043L87.3049 233.217L89.609 230.788L85.9526 223.474L85.101 224.576L85.8774 226.455L83.4731 224.376L80.8433 227.632L78.3388 227.807L77.0366 231.464L75.2082 223.324L72.854 223.374L71.0007 227.006L68.7967 227.206L68.947 225.077L66.2171 223.124L59.0293 221.997L56.3244 224.927L53.2439 223.274L50.9396 223.8L48.9361 221.646L51.4907 212.054L47.7089 206.895L52.8431 192.118L57.6267 172.483Z" fill="#F6F4F2" stroke="#2E2C2C"/>
<path d="M101.631 329.59L102.357 330.516L105.813 326.209L106.715 326.785L107.616 325.583L109.144 327.085L109.294 325.983L111.423 326.008L111.849 327.01L110.121 327.912L111.498 331.443L112.751 330.717L112.826 327.686L114.078 326.71L118.561 330.191L117.885 334.298L120.69 333.948L125.599 330.867L127.953 335.25L129.38 335.776L129.456 337.579L136.268 338.856L136.618 337.704L139.248 337.604L140.776 334.474L143.531 337.178L144.683 335.45L148.314 337.279L150.944 332.996L154.075 333.121L155.853 331.543L155.001 329.064L156.554 327.461L158.182 329.74L160.361 329.54L160.136 330.792L162.916 331.919L161.864 335.801L165.295 338.08L164.919 340.76L166.748 343.615L165.195 343.69L166.697 344.817L167.774 348.399L169.603 347.397L170.655 348.774L172.783 348.148L172.984 345.994L174.486 345.468L175.438 344.441L176.615 345.744L179.37 343.715L180.823 345.644L182.325 345.393L180.347 350.302L182.626 353.458L178.193 356.263L177.191 364.853L179.47 366.306L173.86 377.401L173.309 380.982L174.987 380.531L175.113 381.859L172.182 385.265L173.66 384.814L176.615 386.893L177.266 389.397L185.306 400.993L186.834 401.344L190.215 410.134L188.436 411.787L186.708 411.587L186.859 413.265L186.107 412.964L183.002 406.528L183.703 404.274L179.42 402.596L176.014 395.784L172.082 396.81L170.604 398.964L166.572 399.064L167.349 399.891L166.372 402.195L164.544 402.871L164.093 404.624L162.039 407.229L159.51 408.256L159.359 410.084L153.874 410.059L152.121 408.557L148.515 407.98L145.785 408.907L138.697 404.274L132.386 403.748L121.116 397.086L118.887 398.964L115.28 396.059L109.269 397.612L107.616 395.959L106.64 396.911L104.01 394.632L98.3497 393.53L97.7236 391.726L94.1422 391.651L97.1977 387.644L95.7702 386.417L97.1977 386.267L96.5967 384.939L94.0922 385.165L95.0939 382.986L90.4606 374.195L86.1779 376.699L84.3998 376.048L81.9954 377.125L79.7413 374.02L78.5142 374.495L79.6161 376.875L77.838 377.676L77.5374 375.973L74.3568 375.622L74.1564 373.969L69.0972 373.819L67.9703 367.508L80.0169 357.089L79.2406 355.035L80.8182 352.456L76.4105 352.23L80.0669 347.797L82.4462 349.05L85.627 345.093L86.5035 344.742L87.3049 346.22L89.7844 342.839L92.6395 344.617L94.2424 342.563L95.119 344.016L95.8452 341.687L99.051 344.166L98.525 344.992L99.8023 346.67L102.056 345.568L104.035 347.747L103.434 348.624L105.913 348.449L105.588 349.726L108.443 351.279L109.72 348.198L107.742 346.545L106.99 347.873L106.489 345.694L104.811 344.767L107.091 341.837L105.262 340.509L103.208 341.01L103.008 339.983L98.1244 337.679L100.454 334.574V330.992L101.631 329.59Z" fill="#F6F4F2" stroke="#2E2C2C"/>
<path d="M133.463 527.795L134.84 528.046L129.957 531.903L131.083 529.348L133.463 527.795V527.795ZM124.196 527.62L129.881 531.828L125.549 531.252L121.341 528.146L124.196 527.62ZM134.014 526.042L134.94 526.944L130.908 528.121L134.014 526.042ZM101.33 520.031L96.0707 521.108L90.7361 518.203L85.101 519.806L77.287 516.6L70.9005 516.099L67.0686 517.702L66.8433 520.457L62.1599 519.706L57.3262 522.035L53.2188 522.26L51.3404 524.089L48.9361 524.039L44.7035 528.872L43.4512 525.742L40.8215 526.017L48.2098 511.892L47.0326 508.811L48.8109 507.809L51.6159 501.623L50.2134 496.464L52.8431 493.384L56.675 484.367L60.3565 485.469L61.6339 489.101L67.1187 488.55L69.0723 491.054L70.9256 488.45L74.557 487.523L78.8899 490.754L83.9488 490.979L86.2531 489.251L86.5536 486.747L92.9902 485.394L93.5912 486.346L94.3175 484.818L97.6485 486.171L98.6753 487.899L97.874 489.952L99.9526 490.153L104.736 494.436L114.429 496.665L117.459 493.133L120.364 492.307L119.087 490.879L121.041 487.949L124.422 488.274L125.599 487.273L126.926 488.224L127.352 486.922L128.278 487.147L128.228 485.219L131.059 484.943L131.284 483.791L132.887 483.867L133.688 482.489L134.515 483.14L138.397 480.836L138.246 479.985L139.148 480.761L145.359 478.181L149.867 479.584L153.374 475.877L158.257 476.153L159.86 476.553L160.486 478.933L162.089 480.035L161.688 481.888L163.542 486.772L162.189 487.799L163.942 489.577L163.817 497.466L165.445 501.173L164.493 503.527L166.096 505.981L166.572 511.291L162.465 510.74L154.45 513.269L135.992 526.769L133.438 525.566L129.957 527.62L129.981 529.724L128.829 530.1L124.371 527.269L121.041 527.896L110.922 521.334L105.237 519.33L101.33 520.031V520.031Z" fill="#F6F4F2" stroke="#2E2C2C"/>
<path d="M165.696 130.758L168.776 132.887L167.223 135.091L164.694 133.613L165.696 130.758ZM174.662 108.017L179.02 107.441L185.782 109.42L189.463 103.86L189.689 106.84L188.462 108.218L192.118 109.445L190.64 111.674L190.691 114.228L194.122 116.032L195.299 117.985L198.905 118.787L199.381 120.014L201.209 118.837L204.19 119.563L204.966 122.368L209.9 127.878L210.701 132.787L213.882 134.915L214.458 137.17V138.747L212.48 139.298L213.281 143.806L212.154 148.415L215.084 157.932L211.027 167.825L214.558 169.452L215.009 173.485L210.701 179.696L211.904 184.229L216.136 188.687L215.109 192.419L209.8 195.399L209.048 199.231L202.687 199.732L197.728 196.376L196.426 197.603L192.218 197.578L189.989 192.819L188.487 194.097L188.061 197.127L186.057 198.605L182.025 196.802L179.846 199.657L173.61 197.353L172.533 195.975L174.587 194.923L177.191 190.44L177.442 184.179L175.664 183.352L174.562 184.655L172.909 183.903L171.531 186.884L170.379 185.807L167.624 187.009L165.17 185.832L163.467 186.358L162.34 184.805L160.336 185.531L158.132 188.211L156.379 193.471L152.898 194.147L150.719 192.869L149.942 195.324L146.987 198.029L142.729 199.356L140.826 201.836L136.969 202.562L133.538 198.855L135.241 194.547L138.321 193.646L138.897 192.068L135.191 190.265L135.817 184.504L133.463 184.705L132.01 183.578L131.76 182.05L134.715 180.973L135.817 179.095L133.413 176.565L133.338 174.837L146.211 168.501L152.898 167.073L152.246 165.821L154.075 159.61L155.953 158.157L155.227 156.329L156.504 154.951L152.096 152.497L151.645 150.944L153.699 148.815L149.166 145.459L152.497 138.046L154.476 135.992L158.207 136.293L162.991 142.229L166.973 135.341L168.826 136.368L169.277 131.81L172.282 129.556L173.159 125.599L168.926 123.595L168.901 121.291L172.182 121.191L171.531 117.835L174.662 108.017V108.017Z" fill="#F6F4F2" stroke="#2E2C2C"/>
<path d="M65.3655 269.382L66.5678 270.96L64.6393 274.14L63.1365 275.317L61.6088 273.74L60.6071 274.491L61.9845 279.475L56.1991 279.174L48.2098 280.902L44.8788 288.541L43.0756 288.216L41.3224 290.019L41.047 298.158L38.5174 298.509L37.4905 296.781L35.3617 296.831L34.9109 297.883L32.0307 300.262L29.3258 305.021L26.5459 306.824L24.6175 303.142L25.8447 300.988L24.7927 297.582L21.2363 297.332L20.4349 296.03L17.1791 299.511L13.6727 298.659L11.7694 292.849L8.28815 291.747L9.26494 290.645L13.247 291.371L21.587 285.035L23.9162 286.938L23.0146 287.589L26.1452 287.489L24.7678 287.314L22.689 283.983L27.122 277.371L29.8267 276.995L29.1755 275.242L34.6604 268.48L34.7857 267.002L33.8089 266.802L36.6641 254.956L49.0612 221.671L51.065 223.825L53.369 223.299L56.4746 224.952L59.1544 222.047L66.3423 223.149L69.0723 225.102L68.9469 227.231L71.1509 227.031L73.0042 223.399L75.3584 223.374L77.1617 231.514L78.4641 227.857L80.9686 227.707L83.5983 224.451L86.0025 226.53L85.2261 224.651L86.0777 223.549L89.7343 230.863L87.4552 233.292L90.2351 234.118L94.9687 227.456L97.6986 230.462L98.3998 227.431L96.246 225.353L97.9991 221.646L100.654 219.392L103.233 220.97L105.663 217.088L108.468 218.841L107.491 224.075L111.123 229.26L109.344 232.516L110.446 233.117L108.042 238.126L106.514 239.178L105.112 238.551L103.233 241.682L101.856 241.156L98.0742 242.559L98.3247 244.913L96.6717 246.015L97.2978 247.342L93.5661 246.641L93.8416 250.823L92.5894 249.546L89.8345 251.85L87.931 250.999L84.0742 254.004L82.1457 243.009L79.8666 245.364L78.7896 244.036L77.0615 246.741L73.0042 249.296L69.6733 247.968L66.3924 249.621L66.0668 252.401L67.3691 254.63L66.192 256.283L69.7734 257.786L68.5463 261.217L64.3638 263.521L65.3655 269.382V269.382Z" fill="#F6F4F2" stroke="#2E2C2C"/>
<path d="M29.1005 358.141L23.4905 359.518L18.3563 358.792L14.9751 361.372L9.56548 358.467L6.83551 359.744L2.12705 357.84L3.25411 353.633L1 350.527L7.51178 334.148L8.1379 334.599L6.76046 328.112L7.21125 320.774L13.247 307.725L13.5977 298.709L17.104 299.561L20.3849 296.08L21.1862 297.382L24.7427 297.657L25.8196 301.064L24.6175 303.217L26.5459 306.899L29.3258 305.096L32.0307 300.337L34.9109 297.958L35.3868 296.906L37.5156 296.856L38.5425 298.584L41.0719 298.233L42.5998 299.21L42.1239 303.017L43.6015 302.441L47.6337 304.52L50.5139 302.917L51.5657 304.996L53.8949 305.722L54.3958 309.504L50.1382 309.454L47.5586 310.931L51.1651 315.364L56.6499 318.62L57.9273 322.477L54.6213 325.557L51.716 325.482L53.2188 326.685L50.3887 331.443L52.4924 332.169L49.2867 334.023L47.7089 339.708L43.1507 345.969L41.4978 343.389L42.3994 341.837L41.097 340.184L41.047 334.348L39.1185 339.733L33.9843 346.645L32.5567 355.486L29.1005 358.141V358.141Z" fill="#F6F4F2" stroke="#2E2C2C"/>
<path d="M156.254 260.941L159.234 268.28L162.264 270.008L164.719 273.915L167.849 274.416L168.526 278.348L170.078 279.35L171.231 278.673L175.463 281.854L173.209 289.543L174.411 294.151L180.422 300.037L179.12 302.566L179.646 307.174L182.3 309.303L188.086 310.931L187.36 317.293L190.415 318.244L196.15 316.416L200.258 319.396L201.936 322.777L201.284 324.305L202.612 325.908L194.622 337.729L196.125 340.584L195.624 342.012L193.32 343.064L191.116 346.946L187.635 347.948L182.626 353.457L180.347 350.302L182.325 345.393L180.823 345.643L179.37 343.715L176.615 345.744L175.438 344.441L174.486 345.468L172.984 345.994L172.783 348.148L170.655 348.774L169.603 347.397L167.774 348.398L166.697 344.817L165.195 343.69L166.748 343.615L164.919 340.76L165.295 338.08L161.864 335.801L162.916 331.919L160.136 330.792L160.361 329.54L158.182 329.74L156.554 327.461L155.001 329.064L155.853 331.543L154.075 333.121L150.944 332.996L148.314 337.278L144.683 335.45L143.531 337.178L140.776 334.473L139.248 337.604L136.618 337.704L136.268 338.856L129.456 337.579L129.38 335.776L127.953 335.25L125.599 330.867L120.69 333.947L117.885 334.298L118.561 330.191L114.078 326.709L112.826 327.686L112.751 330.717L111.498 331.443L110.121 327.912L111.849 327.01L111.423 326.008L109.294 325.983L109.144 327.085L107.616 325.582L106.715 326.785L105.813 326.209L102.357 330.516L101.631 329.59L101.706 327.836L99.9275 327.962L98.475 323.153L96.6467 322.352V320.148L93.1904 318.67L92.4893 317.167L96.0456 311.758L100.804 309.904L104.937 306.148L107.692 302.917L107.341 301.164L108.944 299.21L113.427 300.087L117.559 293.6L117.284 291.321L122.142 289.418L124.447 286.638L120.164 282.781L118.937 280.176L123.169 270.859L131.409 276.344L133.488 273.639L137.846 270.884L139.023 268.43L141.602 267.929L143.105 263.496L145.61 262.219L148.314 264.899L152.672 261.342L155.903 260.716L156.254 260.941Z" fill="#F6F4F2" stroke="#2E2C2C"/>
<path d="M65.0399 104.912L62.9363 101.255L61.1831 87.806L57.4263 79.1154L58.353 73.2299L60.6821 73.5053L64.2385 76.2853L66.6679 75.9598L68.2458 78.6646L71.8021 79.3909L72.9542 80.7183L71.4015 81.645L70.3745 82.5466L71.3764 86.9294L78.6644 86.4536L80.0169 84.0743L83.6483 83.323L85.5518 84.6504L88.0813 82.4214L89.2834 82.772L88.507 84.7756L93.8918 83.1977L94.6431 85.8776L96.9472 86.9545L97.6986 83.9741L100.203 81.3695L102.082 81.4446L102.783 79.5161L106.539 80.7183L107.09 82.7219L108.618 83.0976L108.067 84.9258L110.196 86.7291L112.826 88.1817L114.504 86.7291L117.234 89.2837L120.59 86.3033L121.742 83.3731L121.867 84.9258L123.87 85.7273L122.568 88.1566L127.026 90.9867L125.949 92.239L126.35 94.1173L129.556 97.3231L126.676 110.121L123.52 109.821L115.531 113.277L112.124 112.125L108.994 113.903L103.534 112.826L98.8255 115.781L96.4464 114.304L92.2389 118.436L88.1814 117.209L88.0312 119.313L89.4088 120.289L88.9329 122.543L85.702 120.339L84.2245 117.109L83.5983 118.261L81.2692 117.184L80.7682 118.561L82.8219 119.538L80.8433 120.364L80.618 121.617L78.99 121.066L77.9632 118.486L75.684 121.091L72.1778 121.817L71.8272 120.014L68.7467 121.041L66.9183 108.117L65.0399 104.912V104.912Z" fill="#F6F4F2" stroke="#2E2C2C"/>
<path d="M40.9968 298.158L41.2723 290.019L43.0255 288.215L44.8286 288.541L48.1847 280.902L56.1741 279.174L61.9595 279.475L60.6071 274.466L61.6088 273.739L63.1365 275.317L66.5427 271.035L64.1133 263.321L68.2957 261.017L69.5231 257.585L65.9417 256.083L67.1187 254.43L65.8163 252.201L66.1419 249.421L69.4228 247.793L72.7789 249.12L76.8362 246.566L78.5643 243.861L79.6412 245.188L81.9202 242.834L83.8487 253.829L87.7056 250.823L89.609 251.675L92.364 249.371L93.6163 250.648L93.3658 246.465L97.1225 247.167L97.1476 247.267L98.6753 249.947L100.479 248.895L101.581 251.55L101.005 262.619L109.044 266.076L115.33 265.475L113.602 261.217L115.105 259.89L115.355 253.353L116.733 252.126L119.187 252.551L120.439 254.104L122.042 252.376L123.37 255.306L123.044 260.992L126.45 260.265L128.228 262.82L130.407 263.346L133.738 268.38L134.69 270.258L133.538 273.639L131.459 276.344L123.219 270.859L118.987 280.176L120.214 282.781L124.497 286.613L122.193 289.393L117.334 291.296L117.609 293.6L113.477 300.062L108.994 299.21L107.416 301.164L107.767 302.917L105.012 306.123L100.879 309.904L96.1459 311.733L92.5643 317.142L93.2907 318.67L96.7218 320.148L96.7469 322.352L98.5751 323.153L100.028 327.962L101.806 327.836L101.731 329.59L100.579 330.992L100.554 334.549L98.2245 337.679L103.133 339.983L103.334 341.035L105.412 340.534L107.241 341.862L104.962 344.792L106.64 345.719L107.14 347.923L107.892 346.57L109.87 348.223L108.593 351.304L105.713 349.751L106.064 348.474L103.584 348.649L104.185 347.772L102.182 345.593L99.9275 346.72L98.6504 345.042L99.1762 344.216L95.9705 341.736L95.2441 344.066L94.3676 342.613L92.7647 344.667L89.9095 342.889L87.405 346.27L86.6037 344.792L85.7271 345.143L82.5463 349.125L80.1672 347.872L76.4855 352.33L71.2512 350.352L72.5785 344.516L69.9739 345.543L69.1975 347.697L63.7626 344.066L60.1561 354.434L57.1509 355.311L53.3941 352.531L49.1615 354.61L48.2349 354.059L47.9593 355.136L46.5068 352.756L45.004 350.903L46.131 350.227L45.7804 348.298L43.1256 346.019L47.6838 339.758L49.2616 334.073L52.4675 332.244L50.3636 331.518L53.2188 326.76L51.716 325.557L54.6213 325.633L57.9273 322.552L56.6499 318.695L51.1651 315.439L47.5586 311.006L50.1382 309.529L54.4209 309.579L53.92 305.797L51.5908 305.071L50.539 302.992L47.6587 304.595L43.6516 302.516L42.1739 303.092L42.6748 299.285L40.9968 298.158V298.158Z" fill="#F6F4F2" stroke="#2E2C2C"/>
<path d="M57.9772 386.692L66.4926 386.968L64.2635 384.588L62.5856 384.714V377.275L61.158 376.499L60.9327 372.792L59.2796 376.098L57.251 374.495L57.8021 377.325L55.4978 377.876L59.7555 378.277L59.9058 380.156L57.9772 381.608L56.4997 381.959L56.8002 380.231L48.5605 376.774L46.1561 377.952L45.7553 379.98L42.0487 380.907L38.2669 384.238L35.4619 385.365L31.9806 384.538L29.927 385.916L27.172 385.866L25.0182 387.894L22.8894 387.444L26.1452 378.202L29.1256 376.349L26.1201 377.125L23.791 368.159L19.7337 362.349L28.9753 359.769L28.9502 362.048L32.6067 363.751L30.4779 363.426L32.1559 366.606L32.0558 364.402L33.9843 364.202L36.5388 368.284L35.3617 363.776L33.308 362.674L37.2401 360.721L37.5156 362.499L38.893 361.597L40.9467 363.526L39.7947 360.345L43.0004 358.617L38.0416 358.567L36.689 359.669L37.0397 357.064L43.5515 352.882L46.4566 352.606L47.9093 354.985L48.1847 353.908L49.1114 354.484L53.344 352.431L57.1007 355.211L60.1062 354.334L63.7126 343.966L69.1473 347.622L69.9237 345.468L72.5283 344.441L71.201 350.277L76.4354 352.255L80.8433 352.481L79.2654 355.061L80.0418 357.114L67.9952 367.533L69.1223 373.869L74.1814 374.02L74.3818 375.672L77.5624 376.023L77.8629 377.726L79.6412 376.925L78.5392 374.545L79.7664 374.095L82.0205 377.2L84.4247 376.123L86.2029 376.774L90.4857 374.27L95.144 383.061L94.1421 385.24L96.6466 385.014L97.2478 386.342L95.8203 386.492L97.2478 387.719L94.1672 391.726L97.7486 391.801L98.3998 393.605L104.06 394.707L106.69 396.986L109.445 402.37V406.628L102.282 408.782L100.754 411.086L97.2478 410.36L96.6968 415.118L95.0688 415.143L93.2656 413.44L92.915 414.843L91.5375 415.118L90.9114 418.574L88.9078 417.447L87.2548 421.68L90.8863 426.764L94.4427 426.338L96.4464 429.619L95.2191 437.784L95.9956 439.036L93.1655 442.292L93.516 444.246L85.3014 441.866L84.8255 442.943L77.1618 443.594L76.0598 444.195L76.2351 447.326L74.8826 447.051L73.4801 448.979L73.2297 453.212L71.6769 452.886L70.8504 453.963L67.3942 452.085L65.6161 453.587L61.5087 447.451L58.2778 448.428L56.9505 446.975L55.7484 436.181L52.2169 435.38L51.0899 433.551L49.437 433.752L53.3941 426.839L57.3011 414.342L58.4031 405.025L57.6017 395.157L54.3208 386.717L47.9343 379.554L54.4209 384.363L56.4746 389.948L55.8234 384.614L57.9772 386.692V386.692Z" fill="#F6F4F2" stroke="#2E2C2C"/>
<path d="M104.511 2.25225L105.237 10.492L110.271 8.66375L111.999 9.71564L113.101 14.399L112.275 16.1522L109.545 16.8034L106.765 19.2327L102.507 26.5709L103.835 30.7534L106.264 30.4779L106.59 36.639L106.414 37.766L104.135 37.24L98.1494 41.5978L96.3712 40.571L95.3944 42.6497L91.9133 42.8L89.9848 41.698L86.0777 43.0755L83.1475 45.7052L81.219 46.2562L81.1189 44.9288L79.9668 45.0541L78.6393 46.3814L78.3889 51.2902L76.3603 52.9933L76.8863 56.3744L75.1331 57.1758L73.981 55.1472L71.8522 56.0488L68.7716 53.92L68.1455 56.3744L67.1187 55.1973L64.539 55.3726L59.7806 58.1526L55.5981 58.378L54.3208 52.1919L53.2188 50.8394L52.8431 51.9164L50.013 43.8519L50.4638 38.8179L51.6159 37.4654L50.4888 36.3384L50.5891 31.1291L54.9218 26.7963L59.8307 24.4671L60.7823 21.0109L67.269 17.1289L67.6447 14.1987L69.3477 12.3203L76.4604 11.6441L78.5392 8.93925L84.6 8.63871L85.7271 9.71564L89.4588 9.28988L90.9365 7.78718L93.3908 8.48844L94.568 6.30953L99.2013 4.48125L99.577 2.87837L101.931 3.229L103.935 1L104.511 2.25225Z" fill="#F6F4F2" stroke="#2E2C2C"/>
<path d="M127.101 25.1183L128.779 25.4188L128.178 32.2811L129.706 33.8089L132.185 31.5298L131.885 29.977L136.092 29.7766L138.347 28.0986L140.726 28.7999L143.305 27.172L147.012 29.977L152.397 29.9019L150.368 35.4869L157.506 34.1345L159.009 31.2293L162.941 31.6801L163.642 34.41L165.069 35.3617L164.869 37.791L169.803 32.9824L170.554 34.2847L173.81 34.0593L182.876 30.1523L182.1 37.0898L183.402 40.4458L185.206 41.7481L185.13 44.4029L182.225 47.834L178.268 60.5819L178.293 63.5372L180.622 67.7949L176.29 68.5462L174.887 71.5015L175.138 73.9309L169.853 76.4604L169.728 79.1152L170.855 83.1725L170.154 84.3997L173.86 87.1796L170.579 87.931L169.052 89.6841L170.103 90.7861L167.774 92.6895L168.1 97.0223L165.971 96.6216L164.568 100.554L158.958 101.756L157.331 103.809L155.402 102.908L152.071 106.264L146.161 105.588L143.531 107.817L135.692 105.688L134.364 107.366L129.606 106.189L126.625 110.071L129.481 97.2728L126.275 94.067L125.874 92.1886L126.951 90.9364L122.493 88.1063L123.82 85.677L121.817 84.8755L121.692 83.3227L122.218 81.5445L121.141 81.244L124.296 77.4873L124.547 72.5284L127.352 71.3262L128.078 68.7716L130.608 68.9469L130.407 67.6196L132.536 66.3673L132.361 64.5891L133.838 64.2886L134.615 62.4853L131.434 58.0774L129.03 60.9326L119.863 59.3046L120.515 50.7142L116.708 49.0362L110.196 50.2634L112.675 47.784L114.754 42.7249L115.606 36.5137L118.611 35.4368L121.667 30.6031L125.874 30.3276L127.101 25.1183Z" fill="#F6F4F2" stroke="#2E2C2C"/>
<path d="M164.569 100.554L167.849 102.182L170.454 107.14L174.637 108.017L171.381 117.759L172.032 121.115L168.751 121.216L168.776 123.52L173.009 125.523L172.157 129.481L169.152 131.735L168.701 136.293L166.873 135.266L162.891 142.153L158.107 136.218L154.375 135.917L152.397 137.971L149.066 145.384L153.599 148.74L151.545 150.869L151.996 152.422L156.429 154.876L155.152 156.254L155.878 158.082L154 159.534L152.171 165.746L152.822 166.998L146.135 168.425L133.262 174.762L128.829 177.391L121.742 184.429L116.307 186.458L109.069 191.867L106.164 190.64L105.037 191.817L104.411 190.816L99.8274 192.894L95.9705 189.288L93.6414 189.638L92.5394 188.086L91.4874 188.361L91.5877 184.053L94.543 180.697L93.1154 176.064L99.8776 173.459L97.1225 170.554L95.2692 164.619L100.253 162.54L96.3712 160.586L96.1708 154.55L93.8667 152.672L93.3908 149.692L98.0993 147.914L100.929 140.776L99.5018 137.595L101.405 136.668L104.611 138.597L106.439 136.518L109.42 138.321L111.523 136.443L109.545 133.187L109.169 128.003L112.6 123.87L112.45 121.641L111.824 121.166L109.119 124.797L104.31 122.743L102.833 123.169L103.534 121.491L101.13 121.316L100.629 119.913L101.43 119.688L100.929 116.532L98.8006 115.681L103.509 112.725L108.969 113.802L112.099 112.024L115.506 113.201L123.495 109.745L126.651 110.046L129.656 106.164L134.414 107.341L135.742 105.663L143.581 107.792L146.211 105.563L152.096 106.239L155.427 102.883L157.356 103.784L158.984 101.706L164.569 100.554V100.554ZM164.694 133.613L167.223 135.091L168.776 132.887L165.696 130.758L164.694 133.613Z" fill="#F6F4F2" stroke="#2E2C2C"/>
</svg>
