<svg width="37" height="40" viewBox="0 0 37 40" fill="none" xmlns="http://www.w3.org/2000/svg">
<path d="M16.8348 0.50778C17.8408 -0.0574683 19.1511 -0.0600215 20.1563 0.50778C25.213 3.3126 30.2714 6.11303 35.3273 8.91955C36.2782 9.44537 36.9143 10.4842 36.9046 11.5598V28.4347C36.9117 29.5549 36.2128 30.6186 35.2095 31.1325C30.1694 33.9218 25.1318 36.7146 20.0925 39.5039C19.0657 40.0803 17.7291 40.0359 16.7344 39.4123C15.2233 38.5525 13.7097 37.6969 12.1985 36.8379C11.8897 36.6571 11.5416 36.5133 11.3236 36.2194C11.5163 35.9644 11.861 35.9326 12.141 35.8213C12.7718 35.6244 13.351 35.3083 13.9305 35.0017C14.077 34.9032 14.2559 34.941 14.3964 35.0291C15.6885 35.7563 16.9692 36.5047 18.2656 37.2249C18.5422 37.3817 18.8222 37.1736 19.0586 37.0442C24.0046 34.3003 28.9566 31.5666 33.9016 28.8218C34.0849 28.7353 34.1862 28.5444 34.1713 28.3474C34.1747 22.7807 34.1721 17.213 34.173 11.6464C34.194 11.4228 34.0622 11.2173 33.8563 11.1258C28.8336 8.3492 23.8135 5.56835 18.7917 2.79104C18.7047 2.73233 18.6017 2.70082 18.4961 2.70067C18.3905 2.70052 18.2873 2.73173 18.2002 2.79019C13.1784 5.56835 8.15918 8.35175 3.13738 11.1282C2.93219 11.2198 2.79448 11.422 2.8189 11.6464C2.81977 17.213 2.8189 22.7807 2.8189 28.3482C2.8102 28.4443 2.8317 28.5408 2.88053 28.6245C2.92936 28.7083 3.00317 28.7754 3.09201 28.8167C4.4321 29.5627 5.77392 30.3034 7.11488 31.0468C7.87032 31.4459 8.79786 31.6831 9.63018 31.3773C10.3647 31.1187 10.8795 30.383 10.8655 29.6174C10.8724 24.0832 10.862 18.5482 10.8707 13.0149C10.8524 12.7692 11.0898 12.5662 11.3331 12.5893C11.977 12.5851 12.6218 12.5808 13.2656 12.591C13.5344 12.5851 13.7194 12.8496 13.6861 13.0971C13.6835 18.6664 13.6931 24.2357 13.6818 29.8049C13.6835 31.2892 13.0623 32.9042 11.6637 33.6305C9.94071 34.5066 7.81108 34.3208 6.10887 33.4807C4.63526 32.7587 3.22899 31.9066 1.78154 31.1332C0.775679 30.6221 0.0802021 29.5542 0.0872826 28.4349V11.5598C0.0767341 10.462 0.738109 9.40423 1.71868 8.88608C6.75796 6.09445 11.7964 3.30069 16.8348 0.50778Z" fill="#8CC84B"/>
<path d="M21.2311 12.1972C23.4289 12.0583 25.7818 12.1149 27.7595 13.1777C29.2908 13.9922 30.1397 15.7016 30.1668 17.3715C30.124 17.5967 29.8841 17.721 29.6651 17.7055C29.0274 17.7047 28.3896 17.714 27.7519 17.7013C27.4814 17.7115 27.3242 17.4667 27.2902 17.2319C27.107 16.4329 26.6631 15.6416 25.8969 15.2562C24.7209 14.6781 23.3572 14.7072 22.0748 14.7193C21.1386 14.7681 20.1318 14.8477 19.3387 15.3881C18.7298 15.7974 18.5448 16.6238 18.7621 17.2894C18.967 17.7672 19.529 17.9214 19.9888 18.0635C22.6375 18.7435 25.4442 18.6759 28.0423 19.5708C29.118 19.9356 30.1702 20.6448 30.5384 21.7503C31.02 23.232 30.8089 25.0031 29.735 26.1926C28.8641 27.1715 27.5957 27.7042 26.3306 27.9936C24.6476 28.362 22.901 28.3713 21.1919 28.2078C19.5848 28.0279 17.9123 27.6135 16.6717 26.5386C15.6107 25.6343 15.0926 24.2254 15.144 22.8655C15.1563 22.6359 15.3892 22.4757 15.6133 22.4946C16.2555 22.4895 16.8977 22.4878 17.5398 22.4955C17.7963 22.4774 17.9865 22.695 17.9996 22.9323C18.1181 23.6936 18.4096 24.4926 19.0858 24.944C20.3909 25.7705 22.0285 25.7139 23.523 25.737C24.761 25.6831 26.1508 25.6668 27.1612 24.8635C27.6942 24.4054 27.8522 23.6389 27.7081 22.9794C27.552 22.4227 26.9587 22.1633 26.4492 21.9936C23.8345 21.1817 20.9964 21.4763 18.407 20.5581C17.3557 20.1935 16.3392 19.504 15.9353 18.4438C15.3717 16.9434 15.63 15.0875 16.8164 13.9381C17.9733 12.7949 19.6433 12.3546 21.2311 12.197V12.1972Z" fill="#8CC84B"/>
</svg>
